<!--?xml version="1.0" standalone="no"?-->

<svg version="1.0" xmlns="http://www.w3.org/2000/svg" width="300.000000pt" height="300.000000pt" viewBox="0 0 300.000000 300.000000" preserveAspectRatio="xMidYMid meet">
<g transform="translate(0.000000,300.000000) scale(0.100000,-0.100000)" fill="#CB2121" stroke="none">
<path class="node" id="node1" d="M2078 2856 c-30 -41 -96 -66 -247 -92 -105 -18 -155 -40 -204 -90
-64 -64 -72 -86 -72 -202 0 -63 4 -106 11 -110 6 -4 15 -20 21 -37 l10 -30 6
27 c10 37 63 65 159 83 144 26 162 31 213 57 59 31 85 57 117 118 20 39 23 62
27 173 2 102 0 127 -10 127 -8 0 -22 -11 -31 -24z m-154 -227 c-3 -6 -21 -17
-38 -25 -17 -8 -38 -18 -46 -23 -8 -5 -36 -20 -62 -33 -47 -23 -116 -82 -156
-133 -12 -15 -22 -23 -22 -18 0 17 68 100 102 125 34 24 207 116 221 117 5 1
5 -4 1 -10z"></path>
<path class="node" id="node2" d="M1205 2566 c-18 -13 -17 -14 11 -29 26 -14 127 -114 164 -163 48 -64
94 -220 88 -294 -3 -34 -2 -35 36 -38 24 -2 42 2 47 10 9 14 2 66 -11 83 -4 6
-26 55 -49 110 -49 119 -89 180 -172 269 -63 68 -81 76 -114 52z"></path>
<path class="node" id="node3" d="M1916 2189 c-47 -11 -180 -77 -242 -119 -24 -16 -69 -37 -100 -46
-52 -15 -61 -15 -122 1 -37 9 -71 20 -77 25 -27 22 -198 100 -264 120 -58 18
-88 21 -140 17 -205 -17 -417 -171 -521 -376 -55 -111 -80 -232 -79 -390 0
-75 4 -156 9 -181 31 -172 37 -196 87 -355 33 -103 122 -291 181 -380 171
-256 455 -416 664 -375 35 6 68 16 75 22 6 5 45 12 85 15 58 4 86 0 138 -17
107 -35 162 -37 255 -5 84 28 255 113 255 126 0 4 9 10 20 14 31 10 161 145
211 221 25 38 65 110 88 159 24 50 46 97 51 105 8 17 59 183 84 275 79 295 76
557 -7 739 -74 162 -247 323 -412 385 -68 26 -180 35 -239 20z m149 -151 c49
-9 66 -19 111 -64 48 -46 54 -57 54 -93 0 -35 -4 -43 -30 -56 -100 -52 -290
49 -290 154 0 44 12 57 55 64 17 2 33 5 36 6 3 0 32 -4 64 -11z m295 -275 c39
-50 4 -109 -58 -99 -46 7 -62 23 -62 62 0 63 80 88 120 37z"></path>
</g>
<g transform="translate(0.000000,300.000000) scale(0.100000,-0.100000)" fill="#FFFFFF" stroke="none">

<path class="node" id="node5" d="M1825 2592 c-50 -26 -105 -57 -123 -70 -34 -25 -102 -108 -102 -125
0 -5 10 3 22 18 40 51 109 110 156 133 26 13 54 28 62 33 8 5 29 15 46 23 30
13 55 37 37 35 -4 0 -49 -22 -98 -47z"></path>
<path class="node" id="node6" d="M1965 2043 c-43 -7 -55 -20 -55 -64 0 -105 190 -206 290 -154 26 13
30 21 30 56 0 36 -6 47 -54 93 -45 45 -62 55 -111 64 -32 7 -61 11 -64 11 -3
-1 -19 -4 -36 -6z"></path>
<path class="node" id="node7" d="M2262 1774 c-26 -18 -31 -74 -8 -93 23 -19 79 -24 98 -9 28 22 32 61
8 91 -25 31 -63 36 -98 11z"></path>
</g>
</svg>
